<mxfile host="app.diagrams.net" modified="2024-02-21T04:08:25.023Z" agent="Mozilla/5.0 (Windows NT 10.0; Win64; x64) AppleWebKit/537.36 (KHTML, like Gecko) Chrome/121.0.0.0 Safari/537.36 Edg/121.0.0.0" etag="DpXvjwsvgIbWtzcdIPsA" version="23.1.5" type="device">
  <diagram id="R2lEEEUBdFMjLlhIrx00" name="Page-1">
    <mxGraphModel dx="815" dy="475" grid="1" gridSize="10" guides="1" tooltips="1" connect="1" arrows="1" fold="1" page="1" pageScale="1" pageWidth="850" pageHeight="1100" math="0" shadow="0" extFonts="Permanent Marker^https://fonts.googleapis.com/css?family=Permanent+Marker">
      <root>
        <mxCell id="0" />
        <mxCell id="1" parent="0" />
        <mxCell id="PdyHk4m6sI9xL2WnvkCg-1" value="User" style="rounded=0;whiteSpace=wrap;html=1;" vertex="1" parent="1">
          <mxGeometry x="365" y="130" width="120" height="60" as="geometry" />
        </mxCell>
        <mxCell id="PdyHk4m6sI9xL2WnvkCg-16" style="edgeStyle=orthogonalEdgeStyle;rounded=0;orthogonalLoop=1;jettySize=auto;html=1;exitX=0.5;exitY=1;exitDx=0;exitDy=0;entryX=0.5;entryY=0;entryDx=0;entryDy=0;endArrow=none;endFill=0;" edge="1" parent="1" source="PdyHk4m6sI9xL2WnvkCg-3" target="PdyHk4m6sI9xL2WnvkCg-13">
          <mxGeometry relative="1" as="geometry" />
        </mxCell>
        <mxCell id="PdyHk4m6sI9xL2WnvkCg-3" value="Admin" style="rounded=0;whiteSpace=wrap;html=1;" vertex="1" parent="1">
          <mxGeometry x="160" y="340" width="120" height="60" as="geometry" />
        </mxCell>
        <mxCell id="PdyHk4m6sI9xL2WnvkCg-9" style="edgeStyle=orthogonalEdgeStyle;rounded=0;orthogonalLoop=1;jettySize=auto;html=1;exitX=1;exitY=0.5;exitDx=0;exitDy=0;entryX=0.5;entryY=1;entryDx=0;entryDy=0;strokeColor=default;endArrow=none;endFill=0;" edge="1" parent="1" source="PdyHk4m6sI9xL2WnvkCg-4" target="PdyHk4m6sI9xL2WnvkCg-1">
          <mxGeometry relative="1" as="geometry" />
        </mxCell>
        <mxCell id="PdyHk4m6sI9xL2WnvkCg-11" style="edgeStyle=orthogonalEdgeStyle;rounded=0;orthogonalLoop=1;jettySize=auto;html=1;exitX=0;exitY=0.5;exitDx=0;exitDy=0;entryX=0.5;entryY=0;entryDx=0;entryDy=0;endArrow=none;endFill=0;" edge="1" parent="1" source="PdyHk4m6sI9xL2WnvkCg-4" target="PdyHk4m6sI9xL2WnvkCg-6">
          <mxGeometry relative="1" as="geometry" />
        </mxCell>
        <mxCell id="PdyHk4m6sI9xL2WnvkCg-4" value="" style="triangle;whiteSpace=wrap;html=1;rotation=-180;direction=south;" vertex="1" parent="1">
          <mxGeometry x="385" y="240" width="80" height="60" as="geometry" />
        </mxCell>
        <mxCell id="PdyHk4m6sI9xL2WnvkCg-5" value="ISA" style="text;html=1;align=center;verticalAlign=middle;resizable=0;points=[];autosize=1;strokeColor=none;fillColor=none;" vertex="1" parent="1">
          <mxGeometry x="405" y="260" width="40" height="30" as="geometry" />
        </mxCell>
        <mxCell id="PdyHk4m6sI9xL2WnvkCg-19" style="edgeStyle=orthogonalEdgeStyle;rounded=0;orthogonalLoop=1;jettySize=auto;html=1;exitX=0.5;exitY=1;exitDx=0;exitDy=0;entryX=0.5;entryY=0;entryDx=0;entryDy=0;endArrow=none;endFill=0;" edge="1" parent="1" source="PdyHk4m6sI9xL2WnvkCg-6" target="PdyHk4m6sI9xL2WnvkCg-14">
          <mxGeometry relative="1" as="geometry" />
        </mxCell>
        <mxCell id="PdyHk4m6sI9xL2WnvkCg-6" value="Student" style="rounded=0;whiteSpace=wrap;html=1;" vertex="1" parent="1">
          <mxGeometry x="365" y="340" width="120" height="60" as="geometry" />
        </mxCell>
        <mxCell id="PdyHk4m6sI9xL2WnvkCg-7" value="Lecturer/Course Maintainer" style="rounded=0;whiteSpace=wrap;html=1;" vertex="1" parent="1">
          <mxGeometry x="570" y="340" width="120" height="60" as="geometry" />
        </mxCell>
        <mxCell id="PdyHk4m6sI9xL2WnvkCg-10" style="edgeStyle=orthogonalEdgeStyle;rounded=0;orthogonalLoop=1;jettySize=auto;html=1;exitX=0;exitY=0.25;exitDx=0;exitDy=0;entryX=0.854;entryY=0.013;entryDx=0;entryDy=0;entryPerimeter=0;endArrow=none;endFill=0;" edge="1" parent="1" source="PdyHk4m6sI9xL2WnvkCg-4" target="PdyHk4m6sI9xL2WnvkCg-3">
          <mxGeometry relative="1" as="geometry" />
        </mxCell>
        <mxCell id="PdyHk4m6sI9xL2WnvkCg-12" style="edgeStyle=orthogonalEdgeStyle;rounded=0;orthogonalLoop=1;jettySize=auto;html=1;exitX=0;exitY=0.75;exitDx=0;exitDy=0;entryX=0.294;entryY=-0.044;entryDx=0;entryDy=0;entryPerimeter=0;endArrow=none;endFill=0;" edge="1" parent="1" source="PdyHk4m6sI9xL2WnvkCg-4" target="PdyHk4m6sI9xL2WnvkCg-7">
          <mxGeometry relative="1" as="geometry" />
        </mxCell>
        <mxCell id="PdyHk4m6sI9xL2WnvkCg-13" value="Creates" style="rhombus;whiteSpace=wrap;html=1;" vertex="1" parent="1">
          <mxGeometry x="180" y="440" width="80" height="80" as="geometry" />
        </mxCell>
        <mxCell id="PdyHk4m6sI9xL2WnvkCg-14" value="Assigned To" style="rhombus;whiteSpace=wrap;html=1;" vertex="1" parent="1">
          <mxGeometry x="385" y="440" width="80" height="80" as="geometry" />
        </mxCell>
        <mxCell id="PdyHk4m6sI9xL2WnvkCg-24" style="edgeStyle=orthogonalEdgeStyle;rounded=0;orthogonalLoop=1;jettySize=auto;html=1;exitX=0;exitY=0.25;exitDx=0;exitDy=0;entryX=1;entryY=0.5;entryDx=0;entryDy=0;endArrow=none;endFill=0;" edge="1" parent="1" source="PdyHk4m6sI9xL2WnvkCg-15" target="PdyHk4m6sI9xL2WnvkCg-20">
          <mxGeometry relative="1" as="geometry">
            <Array as="points">
              <mxPoint x="240" y="615" />
              <mxPoint x="240" y="695" />
            </Array>
          </mxGeometry>
        </mxCell>
        <mxCell id="PdyHk4m6sI9xL2WnvkCg-15" value="Course" style="rounded=0;whiteSpace=wrap;html=1;" vertex="1" parent="1">
          <mxGeometry x="260" y="600" width="120" height="60" as="geometry" />
        </mxCell>
        <mxCell id="PdyHk4m6sI9xL2WnvkCg-17" style="edgeStyle=orthogonalEdgeStyle;rounded=0;orthogonalLoop=1;jettySize=auto;html=1;exitX=0.5;exitY=1;exitDx=0;exitDy=0;entryX=0.124;entryY=0.013;entryDx=0;entryDy=0;entryPerimeter=0;endArrow=none;endFill=0;" edge="1" parent="1" source="PdyHk4m6sI9xL2WnvkCg-13" target="PdyHk4m6sI9xL2WnvkCg-15">
          <mxGeometry relative="1" as="geometry" />
        </mxCell>
        <mxCell id="PdyHk4m6sI9xL2WnvkCg-18" style="edgeStyle=orthogonalEdgeStyle;rounded=0;orthogonalLoop=1;jettySize=auto;html=1;exitX=0.5;exitY=1;exitDx=0;exitDy=0;entryX=0.808;entryY=-0.01;entryDx=0;entryDy=0;entryPerimeter=0;endArrow=none;endFill=0;" edge="1" parent="1" source="PdyHk4m6sI9xL2WnvkCg-14" target="PdyHk4m6sI9xL2WnvkCg-15">
          <mxGeometry relative="1" as="geometry" />
        </mxCell>
        <mxCell id="PdyHk4m6sI9xL2WnvkCg-20" value="&lt;u&gt;course_ID&lt;/u&gt;" style="ellipse;whiteSpace=wrap;html=1;" vertex="1" parent="1">
          <mxGeometry x="155" y="680" width="70" height="30" as="geometry" />
        </mxCell>
        <mxCell id="PdyHk4m6sI9xL2WnvkCg-21" value="course_Name" style="ellipse;whiteSpace=wrap;html=1;" vertex="1" parent="1">
          <mxGeometry x="150" y="730" width="80" height="30" as="geometry" />
        </mxCell>
        <mxCell id="PdyHk4m6sI9xL2WnvkCg-22" value="end_date" style="ellipse;whiteSpace=wrap;html=1;" vertex="1" parent="1">
          <mxGeometry x="150" y="810" width="80" height="30" as="geometry" />
        </mxCell>
        <mxCell id="PdyHk4m6sI9xL2WnvkCg-23" value="start_date" style="ellipse;whiteSpace=wrap;html=1;" vertex="1" parent="1">
          <mxGeometry x="150" y="770" width="80" height="30" as="geometry" />
        </mxCell>
        <mxCell id="PdyHk4m6sI9xL2WnvkCg-25" style="edgeStyle=orthogonalEdgeStyle;rounded=0;orthogonalLoop=1;jettySize=auto;html=1;exitX=0;exitY=0.5;exitDx=0;exitDy=0;entryX=1;entryY=0.333;entryDx=0;entryDy=0;entryPerimeter=0;endArrow=none;endFill=0;" edge="1" parent="1" source="PdyHk4m6sI9xL2WnvkCg-15" target="PdyHk4m6sI9xL2WnvkCg-21">
          <mxGeometry relative="1" as="geometry">
            <Array as="points">
              <mxPoint x="250" y="630" />
              <mxPoint x="250" y="740" />
            </Array>
          </mxGeometry>
        </mxCell>
        <mxCell id="PdyHk4m6sI9xL2WnvkCg-26" style="edgeStyle=orthogonalEdgeStyle;rounded=0;orthogonalLoop=1;jettySize=auto;html=1;exitX=0;exitY=1;exitDx=0;exitDy=0;entryX=1;entryY=0.333;entryDx=0;entryDy=0;entryPerimeter=0;endArrow=none;endFill=0;" edge="1" parent="1" source="PdyHk4m6sI9xL2WnvkCg-15" target="PdyHk4m6sI9xL2WnvkCg-23">
          <mxGeometry relative="1" as="geometry" />
        </mxCell>
        <mxCell id="PdyHk4m6sI9xL2WnvkCg-27" style="edgeStyle=orthogonalEdgeStyle;rounded=0;orthogonalLoop=1;jettySize=auto;html=1;exitX=0.25;exitY=1;exitDx=0;exitDy=0;entryX=1;entryY=0.333;entryDx=0;entryDy=0;entryPerimeter=0;endArrow=none;endFill=0;" edge="1" parent="1" source="PdyHk4m6sI9xL2WnvkCg-15" target="PdyHk4m6sI9xL2WnvkCg-22">
          <mxGeometry relative="1" as="geometry" />
        </mxCell>
      </root>
    </mxGraphModel>
  </diagram>
</mxfile>
